<svg width="50" height="51" viewBox="0 0 50 51" xmlns="http://www.w3.org/2000/svg">
  <g clip-path="url(#clip0_1_41362)" fill="#282828">
    <path
      d="M27.5999 2.01C27.3819 1.50391 27.0205 1.07277 26.5602 0.769843C26.0999 0.466917 25.5609 0.305481 25.0099 0.305481C24.4589 0.305481 23.9199 0.466917 23.4596 0.769843C22.9993 1.07277 22.6378 1.50391 22.4199 2.01L0.409882 45.21C-0.750118 47.47 0.689882 50.3 2.99988 50.3C3.54541 50.2791 4.07491 50.1098 4.53131 49.8102C4.98771 49.5106 5.35371 49.0922 5.58988 48.6L27.5899 5.4C27.8531 4.87405 27.991 4.2943 27.9927 3.70617C27.9944 3.11804 27.86 2.53749 27.5999 2.01Z"/>
    <path
      d="M49.5898 45.21L44.1598 34.53C43.9399 34.0246 43.5771 33.5944 43.1161 33.2922C42.6551 32.9901 42.116 32.8291 41.5648 32.8291C41.0136 32.8291 40.4744 32.9901 40.0134 33.2922C39.5524 33.5944 39.1897 34.0246 38.9698 34.53L33.5398 45.21C32.3798 47.47 33.8198 50.3 36.1298 50.3H46.9998C49.3098 50.3 50.7498 47.47 49.5898 45.21Z"/>
    <path
      d="M33.2 13L32.73 12.1C32.512 11.5939 32.1505 11.1628 31.6902 10.8599C31.23 10.5569 30.691 10.3955 30.14 10.3955C29.5889 10.3955 29.05 10.5569 28.5897 10.8599C28.1294 11.1628 27.7679 11.5939 27.55 12.1L10.68 45.21C9.52997 47.47 11 50.3 13.27 50.3H14.2C14.7471 50.2858 15.2795 50.1192 15.7371 49.8189C16.1946 49.5185 16.5593 49.0964 16.79 48.6L33.2 16.4C33.4617 15.8716 33.5979 15.2898 33.5979 14.7C33.5979 14.1103 33.4617 13.5285 33.2 13Z"/>
    <path
      d="M38.9999 24.44L38.3099 23.09C38.0886 22.5875 37.7259 22.1602 37.266 21.8602C36.8061 21.5602 36.2689 21.4005 35.7199 21.4005C35.1708 21.4005 34.6336 21.5602 34.1737 21.8602C33.7138 22.1602 33.3511 22.5875 33.1299 23.09L21.8899 45.21C20.7299 47.47 22.1699 50.3 24.4799 50.3H25.8499C26.397 50.2858 26.9294 50.1192 27.387 49.8188C27.8445 49.5185 28.2092 49.0964 28.4399 48.6L38.9999 27.84C39.2662 27.3129 39.4049 26.7306 39.4049 26.14C39.4049 25.5494 39.2662 24.9671 38.9999 24.44Z"/>
  </g>
</svg>
